# xmcd
#
# Track frame offsets:
#	150
#	21785
#	60932
#
# Disc length: 1087 seconds
#
# Revision: 1
# Processed by: cddbd v1.5.1PL0 Copyright (c) Steve Scherf et al.
# Submitted via: CDex 1.50Beta5
#
DISCID=18043d03
DTITLE=石井ビューティー - 花まつり
DYEAR=1998
DGENRE=Pop
TTITLE0=花まつり
TTITLE1=花つまり (Remixed By 福富幸宏)
TTITLE2=花まつり (Instrumental)
EXTD=
EXTT0=
EXTT1=
EXTT2=
PLAYORDER=
